# xmcd
#
# Track frame offsets: 
#        150
#        17016
#        30986
#        45616
#        58682
#        78860
#        96477
#        113059
#        127824
#        144627
#        159844
#        179139
#        195271
#
# Disc length: 2891 seconds
#
# Revision: 1
# Processed by: cddbd v1.5.2PL0 Copyright (c) Steve Scherf et al.
# Submitted via: ExactAudioCopy v0.95b4
#
DISCID=9f0b490d
DTITLE=McFly - Radio:Active
DYEAR=2008
DGENRE=Pop
TTITLE0=Lies
TTITLE1=One for the Radio
TTITLE2=Everybody Knows
TTITLE3=Do Ya
TTITLE4=Falling in Love
TTITLE5=POV
TTITLE6=Corrupted
TTITLE7=Smile
TTITLE8=The End
TTITLE9=Going Through the Motions
TTITLE10=Down Goes Another One
TTITLE11=Only the Strong Survive
TTITLE12=The Last Song
EXTD=YEAR: 2008
EXTT0=
EXTT1=
EXTT2=
EXTT3=
EXTT4=
EXTT5=
EXTT6=
EXTT7=
EXTT8=
EXTT9=
EXTT10=
EXTT11=
EXTT12=
PLAYORDER=
